<!-- class="text-orange-500 dark:text-orange-400"/> -->
<svg width="264" height="264" viewBox="0 0 264 264" fill="none" xmlns="http://www.w3.org/2000/svg">
<path d="M138.4 71.7C118.8 71.7 102.7 77.3 90.45 88.15C78.2 99 72.25 113.7 72.25 131.55C72.25 149.4 78.2 164.1 90.45 174.95C102.7 185.8 118.8 191.4 138.4 191.4C152.4 191.4 165 187.55 176.2 179.85C187.4 172.15 195.1 162.35 198.95 150.8L232.2 170.75C225.55 187.2 213.65 200.85 196.5 211.35C179.35 221.85 160.1 227.1 138.75 227.1C108.3 227.1 82.75 218 62.45 200.15C42.15 182.3 32 159.2 32 131.55C32 103.9 42.15 80.8 62.45 62.95C82.75 45.1 108.3 36 138.75 36C160.45 36 179.7 41.25 196.85 52.1C214 62.6 225.9 76.25 232.55 93.05L198.95 112.3C195.1 100.75 187.4 90.95 176.2 83.25C165 75.55 152.4 71.7 138.4 71.7Z" fill="#FF4D00"/>
</svg>
